<svg width="410" height="410" viewBox="0 0 410 410" fill="none" xmlns="http://www.w3.org/2000/svg">
<circle cx="200" cy="210" r="199" stroke="#316363" stroke-width="2"/>
<circle cx="200" cy="210" r="149" stroke="#316363" stroke-width="2"/>
<g filter="url(#filter0_di_33_26)">
<path d="M89.3388 220V193.091H99.9553C101.996 193.091 103.735 193.481 105.172 194.26C106.608 195.031 107.703 196.104 108.456 197.479C109.218 198.846 109.599 200.423 109.599 202.21C109.599 203.996 109.214 205.573 108.443 206.94C107.672 208.306 106.556 209.37 105.093 210.132C103.639 210.895 101.878 211.276 99.8107 211.276H93.044V206.716H98.891C99.9859 206.716 100.888 206.528 101.598 206.151C102.316 205.766 102.85 205.236 103.201 204.561C103.56 203.878 103.739 203.094 103.739 202.21C103.739 201.316 103.56 200.536 103.201 199.871C102.85 199.196 102.316 198.675 101.598 198.307C100.879 197.931 99.9684 197.742 98.8647 197.742H95.0281V220H89.3388ZM113.295 220V193.091H123.911C125.944 193.091 127.678 193.454 129.114 194.181C130.56 194.9 131.659 195.92 132.412 197.243C133.174 198.557 133.555 200.103 133.555 201.881C133.555 203.668 133.17 205.205 132.399 206.493C131.628 207.772 130.512 208.753 129.049 209.436C127.595 210.119 125.834 210.461 123.767 210.461H116.658V205.888H122.847C123.933 205.888 124.835 205.74 125.554 205.442C126.272 205.144 126.806 204.697 127.157 204.102C127.516 203.506 127.695 202.766 127.695 201.881C127.695 200.988 127.516 200.234 127.157 199.621C126.806 199.008 126.268 198.544 125.541 198.228C124.822 197.904 123.916 197.742 122.821 197.742H118.984V220H113.295ZM127.827 207.754L134.515 220H128.234L121.691 207.754H127.827ZM162.304 206.545C162.304 209.48 161.748 211.976 160.635 214.035C159.532 216.093 158.025 217.666 156.116 218.752C154.215 219.829 152.077 220.368 149.704 220.368C147.312 220.368 145.166 219.825 143.265 218.739C141.365 217.652 139.862 216.08 138.759 214.022C137.655 211.963 137.103 209.471 137.103 206.545C137.103 203.611 137.655 201.115 138.759 199.056C139.862 196.998 141.365 195.43 143.265 194.352C145.166 193.266 147.312 192.723 149.704 192.723C152.077 192.723 154.215 193.266 156.116 194.352C158.025 195.43 159.532 196.998 160.635 199.056C161.748 201.115 162.304 203.611 162.304 206.545ZM156.536 206.545C156.536 204.645 156.251 203.042 155.682 201.737C155.121 200.431 154.329 199.442 153.304 198.767C152.279 198.093 151.079 197.755 149.704 197.755C148.328 197.755 147.128 198.093 146.103 198.767C145.079 199.442 144.281 200.431 143.712 201.737C143.151 203.042 142.871 204.645 142.871 206.545C142.871 208.446 143.151 210.049 143.712 211.354C144.281 212.66 145.079 213.649 146.103 214.324C147.128 214.998 148.328 215.336 149.704 215.336C151.079 215.336 152.279 214.998 153.304 214.324C154.329 213.649 155.121 212.66 155.682 211.354C156.251 210.049 156.536 208.446 156.536 206.545ZM164.265 197.782V193.091H186.365V197.782H178.127V220H172.503V197.782H164.265ZM213.504 206.545C213.504 209.48 212.948 211.976 211.836 214.035C210.732 216.093 209.225 217.666 207.316 218.752C205.415 219.829 203.278 220.368 200.904 220.368C198.512 220.368 196.366 219.825 194.466 218.739C192.565 217.652 191.063 216.08 189.959 214.022C188.855 211.963 188.303 209.471 188.303 206.545C188.303 203.611 188.855 201.115 189.959 199.056C191.063 196.998 192.565 195.43 194.466 194.352C196.366 193.266 198.512 192.723 200.904 192.723C203.278 192.723 205.415 193.266 207.316 194.352C209.225 195.43 210.732 196.998 211.836 199.056C212.948 201.115 213.504 203.611 213.504 206.545ZM207.736 206.545C207.736 204.645 207.451 203.042 206.882 201.737C206.321 200.431 205.529 199.442 204.504 198.767C203.479 198.093 202.279 197.755 200.904 197.755C199.529 197.755 198.328 198.093 197.304 198.767C196.279 199.442 195.482 200.431 194.912 201.737C194.352 203.042 194.071 204.645 194.071 206.545C194.071 208.446 194.352 210.049 194.912 211.354C195.482 212.66 196.279 213.649 197.304 214.324C198.328 214.998 199.529 215.336 200.904 215.336C202.279 215.336 203.479 214.998 204.504 214.324C205.529 213.649 206.321 212.66 206.882 211.354C207.451 210.049 207.736 208.446 207.736 206.545ZM240.226 193.091V220H235.312L223.605 203.064H223.408V220H217.719V193.091H222.712L234.327 210.014H234.563V193.091H240.226ZM250.616 193.091V220H244.927V193.091H250.616ZM254.272 197.782V193.091H276.372V197.782H268.134V220H262.51V197.782H254.272ZM278.435 193.091H284.807L290.943 204.68H291.206L297.342 193.091H303.715L293.9 210.487V220H288.25V210.487L278.435 193.091Z" fill="white"/>
</g>
<circle cx="162" cy="15" r="15" fill="url(#paint0_linear_33_26)"/>
<circle cx="28" cy="315" r="15" fill="url(#paint1_linear_33_26)"/>
<circle cx="73" cy="132" r="25" fill="url(#paint2_linear_33_26)"/>
<circle cx="385" cy="275" r="25" fill="url(#paint3_linear_33_26)"/>
<circle cx="194" cy="355" r="25" fill="url(#paint4_linear_33_26)"/>
<circle cx="327" cy="132" r="15" fill="url(#paint5_linear_33_26)"/>
<defs>
<filter id="filter0_di_33_26" x="85.3388" y="192.723" width="222.376" height="35.6449" filterUnits="userSpaceOnUse" color-interpolation-filters="sRGB">
<feFlood flood-opacity="0" result="BackgroundImageFix"/>
<feColorMatrix in="SourceAlpha" type="matrix" values="0 0 0 0 0 0 0 0 0 0 0 0 0 0 0 0 0 0 127 0" result="hardAlpha"/>
<feOffset dy="4"/>
<feGaussianBlur stdDeviation="2"/>
<feComposite in2="hardAlpha" operator="out"/>
<feColorMatrix type="matrix" values="0 0 0 0 0.00306005 0 0 0 0 0.0623554 0 0 0 0 0.0623554 0 0 0 0.73 0"/>
<feBlend mode="normal" in2="BackgroundImageFix" result="effect1_dropShadow_33_26"/>
<feBlend mode="normal" in="SourceGraphic" in2="effect1_dropShadow_33_26" result="shape"/>
<feColorMatrix in="SourceAlpha" type="matrix" values="0 0 0 0 0 0 0 0 0 0 0 0 0 0 0 0 0 0 127 0" result="hardAlpha"/>
<feOffset dy="2"/>
<feGaussianBlur stdDeviation="2"/>
<feComposite in2="hardAlpha" operator="arithmetic" k2="-1" k3="1"/>
<feColorMatrix type="matrix" values="0 0 0 0 0 0 0 0 0 0 0 0 0 0 0 0 0 0 0.25 0"/>
<feBlend mode="normal" in2="shape" result="effect2_innerShadow_33_26"/>
</filter>
<linearGradient id="paint0_linear_33_26" x1="162" y1="0" x2="162" y2="30" gradientUnits="userSpaceOnUse">
<stop stop-color="#61F5F5"/>
<stop offset="1" stop-color="#9922F8" stop-opacity="0.95"/>
</linearGradient>
<linearGradient id="paint1_linear_33_26" x1="28" y1="300" x2="28" y2="330" gradientUnits="userSpaceOnUse">
<stop stop-color="#61F5F5"/>
<stop offset="1" stop-color="#9922F8" stop-opacity="0.95"/>
</linearGradient>
<linearGradient id="paint2_linear_33_26" x1="73" y1="107" x2="73" y2="157" gradientUnits="userSpaceOnUse">
<stop stop-color="#45DDE7"/>
<stop offset="1" stop-color="#1B3B3B"/>
</linearGradient>
<linearGradient id="paint3_linear_33_26" x1="385" y1="250" x2="385" y2="300" gradientUnits="userSpaceOnUse">
<stop stop-color="#45DDE7"/>
<stop offset="1" stop-color="#1B3B3B"/>
</linearGradient>
<linearGradient id="paint4_linear_33_26" x1="194" y1="330" x2="194" y2="380" gradientUnits="userSpaceOnUse">
<stop stop-color="#45DDE7"/>
<stop offset="1" stop-color="#1B3B3B"/>
</linearGradient>
<linearGradient id="paint5_linear_33_26" x1="327" y1="117" x2="327" y2="147" gradientUnits="userSpaceOnUse">
<stop stop-color="#61F5F5"/>
<stop offset="1" stop-color="#9922F8" stop-opacity="0.95"/>
</linearGradient>
</defs>
</svg>
