<svg width="125" height="124" viewBox="0 0 125 124" fill="none" xmlns="http://www.w3.org/2000/svg">
<circle cx="65" cy="63" r="39" stroke="#316363" stroke-width="2"/>
<circle cx="65" cy="64" r="59" stroke="#316363" stroke-width="2"/>
<path d="M52.1605 86V49.6364H66.5071C69.2652 49.6364 71.6148 50.1631 73.5561 51.2166C75.4974 52.2583 76.977 53.7083 77.995 55.5668C79.0249 57.4134 79.5398 59.544 79.5398 61.9588C79.5398 64.3736 79.0189 66.5043 77.9773 68.3509C76.9356 70.1974 75.4264 71.6357 73.4496 72.6655C71.4846 73.6953 69.1054 74.2102 66.3118 74.2102H57.1676V68.049H65.0689C66.5485 68.049 67.7678 67.7945 68.7266 67.2855C69.6972 66.7647 70.4193 66.0485 70.8928 65.1371C71.3781 64.2138 71.6207 63.1544 71.6207 61.9588C71.6207 60.7514 71.3781 59.6979 70.8928 58.7983C70.4193 57.8868 69.6972 57.1825 68.7266 56.6854C67.7559 56.1764 66.5249 55.9219 65.0334 55.9219H59.8487V86H52.1605Z" fill="#316363"/>
<circle cx="7" cy="76" r="7" fill="url(#paint0_linear_31_16)"/>
<circle cx="102" cy="56" r="7" fill="url(#paint1_linear_31_16)"/>
<circle cx="58" cy="100" r="7" fill="url(#paint2_linear_31_16)"/>
<circle cx="29" cy="48" r="9" fill="url(#paint3_linear_31_16)"/>
<circle cx="102" cy="109" r="9" fill="url(#paint4_linear_31_16)"/>
<circle cx="84" cy="9" r="9" fill="url(#paint5_linear_31_16)"/>
<defs>
<linearGradient id="paint0_linear_31_16" x1="7" y1="69" x2="7" y2="83" gradientUnits="userSpaceOnUse">
<stop stop-color="#45DDE7"/>
<stop offset="1" stop-color="#226AF8" stop-opacity="0.95"/>
</linearGradient>
<linearGradient id="paint1_linear_31_16" x1="102" y1="49" x2="102" y2="63" gradientUnits="userSpaceOnUse">
<stop stop-color="#45DDE7"/>
<stop offset="1" stop-color="#226AF8" stop-opacity="0.95"/>
</linearGradient>
<linearGradient id="paint2_linear_31_16" x1="58" y1="93" x2="58" y2="107" gradientUnits="userSpaceOnUse">
<stop stop-color="#45DDE7"/>
<stop offset="1" stop-color="#226AF8" stop-opacity="0.95"/>
</linearGradient>
<linearGradient id="paint3_linear_31_16" x1="21.5" y1="44" x2="26.5" y2="57" gradientUnits="userSpaceOnUse">
<stop stop-color="#A21AF5"/>
<stop offset="1" stop-color="#004040"/>
</linearGradient>
<linearGradient id="paint4_linear_31_16" x1="94.5" y1="105" x2="99.5" y2="118" gradientUnits="userSpaceOnUse">
<stop stop-color="#A21AF5"/>
<stop offset="1" stop-color="#004040"/>
</linearGradient>
<linearGradient id="paint5_linear_31_16" x1="76.5" y1="5" x2="81.5" y2="18" gradientUnits="userSpaceOnUse">
<stop stop-color="#A21AF5"/>
<stop offset="1" stop-color="#004040"/>
</linearGradient>
</defs>
</svg>
