<svg width="50" height="50" viewBox="0 0 50 50" fill="none" xmlns="http://www.w3.org/2000/svg">
<circle cx="25" cy="25" r="25" fill="#FFE040"/>
<path d="M36.8 31.8998C36.8 34.5785 35.5621 37.1475 33.3585 39.0416C31.1549 40.9357 28.1663 41.9998 25.05 41.9998C21.9337 41.9998 18.945 40.9357 16.7415 39.0416C14.5379 37.1475 13.3 34.5785 13.3 31.8998L25.05 31.8998H36.8Z" fill="white"/>
<ellipse cx="14.5" cy="19.65" rx="4.3" ry="6.45" fill="white"/>
<ellipse cx="14.5" cy="21.7499" rx="3" ry="4.35" fill="#0E1A46"/>
<ellipse cx="12.75" cy="19.8999" rx="0.45" ry="0.5" fill="white"/>
<ellipse cx="12.4" cy="21.05" rx="0.3" ry="0.35" fill="white"/>
<ellipse cx="34.7" cy="20.45" rx="4.3" ry="6.45" fill="white"/>
<ellipse cx="34.7" cy="22.5502" rx="3" ry="4.35" fill="#0E1A46"/>
<ellipse cx="32.95" cy="20.7" rx="0.45" ry="0.5" fill="white"/>
<ellipse cx="32.6" cy="21.85" rx="0.3" ry="0.35" fill="white"/>
</svg>
